<svg width="16" height="16" viewBox="0 0 16 16" fill="none" xmlns="http://www.w3.org/2000/svg">
<path d="M14 8.00001C14 9.59131 13.3679 11.1174 12.2427 12.2427C11.1174 13.3679 9.59132 14 8.00003 14C6.40873 14 4.8826 13.3679 3.75739 12.2427C2.63217 11.1174 2.00003 9.59131 2.00003 8.00001C2.00003 6.40871 2.63217 4.88259 3.75739 3.75737C4.8826 2.63215 6.40873 2.00001 8.00003 2.00001C9.59132 2.00001 11.1174 2.63215 12.2427 3.75737C13.3679 4.88259 14 6.40871 14 8.00001ZM1.14288 8.00001C1.14288 9.81864 1.86533 11.5628 3.15129 12.8487C4.43726 14.1347 6.1814 14.8572 8.00003 14.8572C9.81865 14.8572 11.5628 14.1347 12.8488 12.8487C14.1347 11.5628 14.8572 9.81864 14.8572 8.00001C14.8572 6.18138 14.1347 4.43724 12.8488 3.15128C11.5628 1.86532 9.81865 1.14287 8.00003 1.14287C6.1814 1.14287 4.43726 1.86532 3.15129 3.15128C1.86533 4.43724 1.14288 6.18138 1.14288 8.00001ZM7.57145 4.14287V8.00001C7.57145 8.14197 7.64378 8.2759 7.76163 8.35626L10.3331 10.0705C10.5313 10.2018 10.7965 10.1482 10.9277 9.95269C11.059 9.75715 11.0054 9.4893 10.8098 9.35805L8.4286 7.76965V4.14287C8.4286 3.90715 8.23574 3.7143 8.00003 3.7143C7.76431 3.7143 7.57145 3.90715 7.57145 4.14287Z" fill="white"/>
</svg>
